ply
format ascii 1.0
comment PCL generated
element vertex 138
property float x
property float y
property float z
element face 0
element camera 1
property float view_px
property float view_py
property float view_pz
property float x_axisx
property float x_axisy
property float x_axisz
property float y_axisx
property float y_axisy
property float y_axisz
property float z_axisx
property float z_axisy
property float z_axisz
property float focal
property float scalex
property float scaley
property float centerx
property float centery
property int viewportx
property int viewporty
property float k1
property float k2
end_header
40 -75 255
-219 -64 255
38.25 -64 255
-220.875 -53.5 255
35.714287 -54.42857 255
-253 -2 255
-23 -1.5 255
-8.5 -1.5 255
0 -1 255
233.25 -1.25 255
245.33333 -2 255
255 -2 255
-251.60001 4.8000002 255
-236 7.6666665 255
-20.333334 8.666667 255
-8.6923075 6.0769229 255
6.3076925 7.3846154 255
18 9.5 255
235.66667 7.3333335 255
248.85001 6.25 255
-251.2 16.799999 255
-31.5 29 255
-22 16.5 255
-9 19.888889 255
4.4000001 18.200001 255
234 15 255
245.14285 22 255
256 20 255
209 42 255
-19.571428 54.857143 255
-11 58 255
233.5 56 255
245.14285 54.42857 255
-17.666666 69.333336 255
-12 60 255
19.666666 68 255
235.125 68.875 255
248.66667 70 255
-247.42857 85.428574 255
-201.33333 87.166664 255
-186.60869 84.695656 255
-177.33333 84.333336 255
-39 87 255
-21.799999 79.400002 255
-7 77 255
13 87 255
27 81 255
70.045456 85.63636 255
78.111115 86.111115 255
205.5 87.5 255
217.66667 80.333336 255
236.39999 79 255
244.5 86 255
-256 102.5 255
-249.16667 99 255
-229 100 255
-210 102.5 255
-200.875 95.1875 255
-187.03125 96.40625 255
-177.5 96.666664 255
-37.47826 98.652176 255
-23 98.090912 255
-8.6428576 100.71429 255
6.875 96.375 255
15 90 255
49 98.5 255
68.170731 96.634148 255
77.959999 96.639999 255
208 90 255
217.33333 96.25 255
231.22223 99.666664 255
245.71428 99.928574 255
255.5 98.5 255
-256 114 255
-249.03572 112.35714 255
-229 109.4 255
-214.93333 111.6 255
-197.16667 108.66666 255
-187.03572 112.92857 255
-176.0625 113.1875 255
-95.666664 118 255
-88 116 255
-31 107.5 255
-21.346153 110.73077 255
-8.586957 112.36957 255
5.7333331 112.2 255
27 113 255
33.166668 114.83334 255
52.384617 110.38461 255
67.419357 111.67742 255
80.055557 113.5 255
148 119 255
158 118 255
168.66667 115.33334 255
181 119 255
196 117 255
234.19231 109.69231 255
247.06061 110.06061 255
255.14285 110.14286 255
-245.60001 125 255
-235 128.5 255
-220.3158 129.47368 255
-200.5 128.5 255
-187.11111 127.11111 255
-173.92857 128.64285 255
-158.5 128.60001 255
-142.45454 125.45454 255
-127.81818 124.36364 255
-112.55 122.3 255
-98.75 121.625 255
-82.199997 122 255
-73 121 255
-43 120 255
-7.5999999 120.8 255
8.5714283 123.14286 255
21.200001 129 255
37.357143 125.71429 255
55.5 129.5 255
68.619049 126 255
81.277779 128 255
96.294121 129.52942 255
109.75 128.5 255
126.66666 124.66666 255
140.83333 123 255
156.85715 121.85714 255
168 121 255
-232 137 255
-218.39999 137.2 255
-201 136.33333 255
-188 135.33333 255
-113.33334 141.66667 255
-89 138 255
8 135 255
35.333332 139.5 255
52 138.8 255
65.666664 136.88889 255
143 141 255
160 138 255
0 0 0 1 0 0 0 1 0 0 0 1 0 0 0 0 0 138 1 0 0
